<svg width="56" height="56" viewBox="0 0 56 56" fill="none" xmlns="http://www.w3.org/2000/svg">
<rect width="56" height="56" rx="8" fill="#CA9ED6"/>
<g clip-path="url(#clip0_148_523)">
<path d="M14.1313 35.1712V20.8416C14.4385 19.9296 15.0977 19.3664 15.9169 18.8992C19.3697 16.9344 22.8097 14.9536 26.2369 12.9472C27.4017 12.2656 28.4961 12.2592 29.6577 12.9376C33.1617 14.9792 36.6753 17.0112 40.2017 19.0144C41.3473 19.664 41.8689 20.592 41.8657 21.8944C41.8497 25.952 41.8529 30.0096 41.8657 34.0704C41.8689 35.3632 41.3729 36.304 40.2145 36.9568C37.4657 38.4992 34.7489 40.1056 32.0097 41.664C30.8417 42.3296 29.7377 43.1136 28.4545 43.5648H27.4305C27.0241 43.392 26.6113 43.2352 26.2241 43.0112C22.8161 41.04 19.4113 39.0624 15.9873 37.1168C15.1585 36.6464 14.4609 36.096 14.1281 35.1744L14.1313 35.1712ZM27.9713 37.1296C31.2161 37.0592 33.7601 35.6864 35.6161 33.0176C35.8593 32.6656 35.8241 32.48 35.4401 32.2688C34.4705 31.7376 33.5073 31.1808 32.5665 30.5984C32.1409 30.336 31.9073 30.3488 31.5777 30.7872C30.2561 32.5344 27.9233 33.0656 25.9809 32.1248C24.0161 31.1712 22.9633 28.9696 23.5201 26.8608C23.9969 25.0496 25.1873 23.8976 27.0113 23.504C28.8641 23.104 30.416 23.7184 31.5872 25.1936C31.8817 25.5648 32.0833 25.5872 32.4608 25.3568C33.4081 24.7808 34.3745 24.2432 35.3344 23.6896C35.9009 23.3632 35.9169 23.3472 35.5329 22.8224C33.2449 19.6992 30.1697 18.3552 26.3521 18.976C21.9649 19.6896 18.3041 23.76 18.8737 29.072C19.3601 33.6128 23.3441 37.1872 27.9713 37.1264V37.1296ZM36.7488 28.9088C37.4368 28.9024 37.4753 28.9472 37.3985 29.568C37.3889 29.6352 37.3825 29.7024 37.3792 29.7728C37.3696 29.9328 37.3569 30.096 37.5777 30.1152C37.7505 30.1312 37.9361 30.1344 38.0161 29.9392C38.0737 29.7984 38.1089 29.6448 38.1217 29.4944C38.1537 29.1232 38.2817 28.8768 38.7137 28.8992C38.9025 28.9088 39.0465 28.8224 39.0625 28.608C39.0817 28.3776 38.9633 28.2624 38.7393 28.2336C38.6049 28.2176 38.4705 28.2016 38.4097 28.0416C38.2561 27.6256 38.6176 26.9536 39.0688 26.848C39.216 26.8128 39.3281 26.7584 39.3568 26.6016C39.3792 26.4608 39.3761 26.2688 39.232 26.2464C38.6369 26.1536 38.7393 25.7664 38.8225 25.376C38.8577 25.2128 38.8449 25.056 38.6561 25.0016C38.4609 24.9472 38.2689 24.9792 38.1889 25.1936C38.1281 25.3504 38.0993 25.5232 38.0737 25.6896C38.0225 26.0032 37.8721 26.16 37.5329 26.176C36.8193 26.208 36.7553 26.1568 36.8064 25.4464C36.8225 25.2288 36.8257 25.0208 36.5377 24.9888C36.2785 24.96 36.1665 25.1104 36.1313 25.344C36.1185 25.4272 36.0833 25.5104 36.0769 25.5936C36.0545 25.9744 35.8881 26.1952 35.4753 26.1888C35.2833 26.1856 35.1521 26.2848 35.1425 26.496C35.1329 26.6976 35.2257 26.816 35.4305 26.848C35.5617 26.8672 35.7057 26.8544 35.7792 27.0112C35.9489 27.3824 35.5969 28.16 35.2097 28.2304C35.0016 28.2656 34.8449 28.3232 34.8417 28.5664C34.8385 28.7712 34.9441 28.8896 35.1457 28.9024C35.4305 28.9248 35.4689 29.1008 35.4368 29.3312C35.4209 29.4496 35.3985 29.568 35.3761 29.6832C35.3409 29.888 35.3505 30.0704 35.6064 30.1088C35.8176 30.1408 35.9777 30.0608 36.0353 29.8432C36.0673 29.728 36.0993 29.6128 36.1089 29.4944C36.1409 29.0528 36.3553 28.8384 36.7553 28.9088H36.7488Z" fill="#68217A" fill-opacity="0.8"/>
<path d="M36.9792 28.24C36.7808 28.1696 36.3872 28.4032 36.3872 27.888C36.3872 27.0816 36.5632 26.8256 37.1904 26.848C37.4368 26.8544 37.8144 26.6912 37.8176 27.1936C37.8208 27.9968 37.6448 28.2368 36.9824 28.24H36.9792Z" fill="#68217A" fill-opacity="0.8"/>
</g>
<defs>
<clipPath id="clip0_148_523">
<rect width="32" height="32" fill="white" transform="translate(12 12)"/>
</clipPath>
</defs>
</svg>
