<svg width="14" height="15" viewBox="0 0 14 15" fill="none" xmlns="http://www.w3.org/2000/svg">
<g clip-path="url(#clip0_66_212)">
<mask id="mask0_66_212" style="mask-type:luminance" maskUnits="userSpaceOnUse" x="0" y="0" width="14" height="15">
<path d="M13.5945 6.27273H7.30469V8.88068H10.9251C10.5876 10.5375 9.17628 11.4886 7.30469 11.4886C5.0956 11.4886 3.31605 9.70909 3.31605 7.5C3.31605 5.29091 5.0956 3.51136 7.30469 3.51136C8.25583 3.51136 9.11492 3.84886 9.78992 4.40114L11.7536 2.4375C10.557 1.39432 9.02287 0.75 7.30469 0.75C3.56151 0.75 0.554688 3.75682 0.554688 7.5C0.554688 11.2432 3.56151 14.25 7.30469 14.25C10.6797 14.25 13.7479 11.7955 13.7479 7.5C13.7479 7.10114 13.6865 6.67159 13.5945 6.27273Z" fill="white"/>
</mask>
<g mask="url(#mask0_66_212)">
<path d="M-0.0625 11.489V3.51172L5.15341 7.50036L-0.0625 11.489Z" fill="#FBBC05"/>
</g>
<mask id="mask1_66_212" style="mask-type:luminance" maskUnits="userSpaceOnUse" x="0" y="0" width="14" height="15">
<path d="M13.5945 6.27273H7.30469V8.88068H10.9251C10.5876 10.5375 9.17628 11.4886 7.30469 11.4886C5.0956 11.4886 3.31605 9.70909 3.31605 7.5C3.31605 5.29091 5.0956 3.51136 7.30469 3.51136C8.25583 3.51136 9.11492 3.84886 9.78992 4.40114L11.7536 2.4375C10.557 1.39432 9.02287 0.75 7.30469 0.75C3.56151 0.75 0.554688 3.75682 0.554688 7.5C0.554688 11.2432 3.56151 14.25 7.30469 14.25C10.6797 14.25 13.7479 11.7955 13.7479 7.5C13.7479 7.10114 13.6865 6.67159 13.5945 6.27273Z" fill="white"/>
</mask>
<g mask="url(#mask1_66_212)">
<path d="M-0.0625 3.51172L5.15341 7.50036L7.30114 5.62877L14.6648 4.43218V0.136719H-0.0625V3.51172Z" fill="#EA4335"/>
</g>
<mask id="mask2_66_212" style="mask-type:luminance" maskUnits="userSpaceOnUse" x="0" y="0" width="14" height="15">
<path d="M13.5945 6.27273H7.30469V8.88068H10.9251C10.5876 10.5375 9.17628 11.4886 7.30469 11.4886C5.0956 11.4886 3.31605 9.70909 3.31605 7.5C3.31605 5.29091 5.0956 3.51136 7.30469 3.51136C8.25583 3.51136 9.11492 3.84886 9.78992 4.40114L11.7536 2.4375C10.557 1.39432 9.02287 0.75 7.30469 0.75C3.56151 0.75 0.554688 3.75682 0.554688 7.5C0.554688 11.2432 3.56151 14.25 7.30469 14.25C10.6797 14.25 13.7479 11.7955 13.7479 7.5C13.7479 7.10114 13.6865 6.67159 13.5945 6.27273Z" fill="white"/>
</mask>
<g mask="url(#mask2_66_212)">
<path d="M-0.0625 11.489L9.14205 4.43218L11.5659 4.73899L14.6648 0.136719V14.864H-0.0625V11.489Z" fill="#34A853"/>
</g>
<mask id="mask3_66_212" style="mask-type:luminance" maskUnits="userSpaceOnUse" x="0" y="0" width="14" height="15">
<path d="M13.5945 6.27273H7.30469V8.88068H10.9251C10.5876 10.5375 9.17628 11.4886 7.30469 11.4886C5.0956 11.4886 3.31605 9.70909 3.31605 7.5C3.31605 5.29091 5.0956 3.51136 7.30469 3.51136C8.25583 3.51136 9.11492 3.84886 9.78992 4.40114L11.7536 2.4375C10.557 1.39432 9.02287 0.75 7.30469 0.75C3.56151 0.75 0.554688 3.75682 0.554688 7.5C0.554688 11.2432 3.56151 14.25 7.30469 14.25C10.6797 14.25 13.7479 11.7955 13.7479 7.5C13.7479 7.10114 13.6865 6.67159 13.5945 6.27273Z" fill="white"/>
</mask>
<g mask="url(#mask3_66_212)">
<path d="M14.6683 14.864L5.15696 7.50036L3.92969 6.5799L14.6683 3.51172V14.864Z" fill="#4285F4"/>
</g>
</g>
<defs>
<clipPath id="clip0_66_212">
<rect width="13.5" height="13.5" fill="white" transform="translate(0.34375 0.75)"/>
</clipPath>
</defs>
</svg>
