<svg width="48" height="49" viewBox="0 0 48 49" fill="none" xmlns="http://www.w3.org/2000/svg">
<g opacity="0.8">
<rect y="0.289062" width="48" height="48" rx="24" fill="#2E3446"/>
<path d="M10.2266 23.1641C9.60524 23.1641 9.10156 23.6677 9.10156 24.2891C9.10156 24.9104 9.60524 25.4141 10.2266 25.4141V23.1641ZM38.567 25.0846C39.0063 24.6452 39.0063 23.9329 38.567 23.4936L31.4075 16.3341C30.9682 15.8948 30.2559 15.8948 29.8165 16.3341C29.3772 16.7735 29.3772 17.4858 29.8165 17.9251L36.1805 24.2891L29.8165 30.653C29.3772 31.0924 29.3772 31.8047 29.8165 32.244C30.2559 32.6834 30.9682 32.6834 31.4075 32.244L38.567 25.0846ZM10.2266 25.4141H37.7715V23.1641H10.2266V25.4141Z" fill="#DAE0ED"/>
</g>
</svg>
