<svg width="48" height="49" viewBox="0 0 48 49" fill="none" xmlns="http://www.w3.org/2000/svg">
<g opacity="0.8">
<rect y="0.289062" width="48" height="48" rx="24" fill="#2E3446"/>
<path d="M37.7734 23.1641C38.3948 23.1641 38.8984 23.6677 38.8984 24.2891C38.8984 24.9104 38.3948 25.4141 37.7734 25.4141V23.1641ZM9.43302 25.0846C8.99368 24.6452 8.99368 23.9329 9.43302 23.4936L16.5925 16.3341C17.0318 15.8948 17.7441 15.8948 18.1835 16.3341C18.6228 16.7735 18.6228 17.4858 18.1835 17.9251L11.8195 24.2891L18.1835 30.653C18.6228 31.0924 18.6228 31.8047 18.1835 32.244C17.7441 32.6834 17.0318 32.6834 16.5925 32.244L9.43302 25.0846ZM37.7734 25.4141H10.2285V23.1641H37.7734V25.4141Z" fill="#DAE0ED"/>
</g>
</svg>
