<svg width="76" height="13" viewBox="0 0 76 13" fill="none" xmlns="http://www.w3.org/2000/svg">
<g clip-path="url(#clip0_724_17)">
<path d="M6 1.57617L7.545 4.70617L11 5.21117L8.5 7.64617L9.09 11.0862L6 9.46117L2.91 11.0862L3.5 7.64617L1 5.21117L4.455 4.70617L6 1.57617Z" fill="#F7BF68" stroke="#F7BF68" stroke-width="2" stroke-linecap="round" stroke-linejoin="round"/>
</g>
<g clip-path="url(#clip1_724_17)">
<path d="M22 1.57617L23.545 4.70617L27 5.21117L24.5 7.64617L25.09 11.0862L22 9.46117L18.91 11.0862L19.5 7.64617L17 5.21117L20.455 4.70617L22 1.57617Z" fill="#F7BF68" stroke="#F7BF68" stroke-width="2" stroke-linecap="round" stroke-linejoin="round"/>
</g>
<g clip-path="url(#clip2_724_17)">
<path d="M38 1.57617L39.545 4.70617L43 5.21117L40.5 7.64617L41.09 11.0862L38 9.46117L34.91 11.0862L35.5 7.64617L33 5.21117L36.455 4.70617L38 1.57617Z" fill="#F7BF68" stroke="#F7BF68" stroke-width="2" stroke-linecap="round" stroke-linejoin="round"/>
</g>
<g clip-path="url(#clip3_724_17)">
<path d="M54 1.57617L55.545 4.70617L59 5.21117L56.5 7.64617L57.09 11.0862L54 9.46117L50.91 11.0862L51.5 7.64617L49 5.21117L52.455 4.70617L54 1.57617Z" fill="#F7BF68" stroke="#F7BF68" stroke-width="2" stroke-linecap="round" stroke-linejoin="round"/>
</g>
<g clip-path="url(#clip4_724_17)">
<path d="M70 1.57617L71.545 4.70617L75 5.21117L72.5 7.64617L73.09 11.0862L70 9.46117L66.91 11.0862L67.5 7.64617L65 5.21117L68.455 4.70617L70 1.57617Z" fill="#F7BF68" stroke="#F7BF68" stroke-width="2" stroke-linecap="round" stroke-linejoin="round"/>
</g>
<defs>
<clipPath id="clip0_724_17">
<rect width="12" height="12" fill="white" transform="translate(0 0.576172)"/>
</clipPath>
<clipPath id="clip1_724_17">
<rect width="12" height="12" fill="white" transform="translate(16 0.576172)"/>
</clipPath>
<clipPath id="clip2_724_17">
<rect width="12" height="12" fill="white" transform="translate(32 0.576172)"/>
</clipPath>
<clipPath id="clip3_724_17">
<rect width="12" height="12" fill="white" transform="translate(48 0.576172)"/>
</clipPath>
<clipPath id="clip4_724_17">
<rect width="12" height="12" fill="white" transform="translate(64 0.576172)"/>
</clipPath>
</defs>
</svg>
